<?xml version="1.0" standalone="no"?>
<!DOCTYPE svg PUBLIC "-//W3C//DTD SVG 20010904//EN"
 "http://www.w3.org/TR/2001/REC-SVG-20010904/DTD/svg10.dtd">
<svg version="1.0" xmlns="http://www.w3.org/2000/svg"
 width="4267.000000pt" height="4267.000000pt" viewBox="0 0 4267.000000 4267.000000"
 preserveAspectRatio="xMidYMid meet">

<g transform="translate(0.000000,4267.000000) scale(0.100000,-0.100000)"
fill="#000000" stroke="none">
<path d="M11155 41179 c-475 -6 -523 -10 -573 -49 -31 -25 -69 -35 -205 -55
-130 -19 -209 -43 -259 -77 -21 -14 -73 -38 -115 -53 -177 -61 -215 -78 -246
-110 -20 -21 -47 -36 -72 -41 -38 -7 -52 -18 -107 -87 -20 -24 -39 -36 -65
-40 -61 -10 -162 -84 -352 -257 -163 -148 -215 -192 -268 -226 -43 -28 -53
-40 -59 -72 -9 -52 -24 -78 -83 -145 -52 -60 -80 -108 -120 -207 -12 -30 -39
-79 -61 -107 -49 -66 -70 -106 -70 -136 0 -27 -17 -47 -35 -40 -20 7 -45 -38
-67 -124 -22 -86 -42 -131 -63 -139 -21 -8 -41 -68 -70 -209 -14 -72 -38 -154
-52 -184 -25 -53 -26 -58 -34 -375 -46 -1820 -45 -18087 1 -19766 l9 -325 30
-58 c16 -31 37 -92 46 -135 25 -116 45 -174 70 -202 32 -36 43 -60 64 -145 22
-86 46 -129 67 -121 18 7 34 -24 34 -67 0 -37 29 -95 105 -211 28 -42 65 -102
83 -134 48 -84 120 -160 335 -354 346 -312 406 -358 495 -384 41 -12 58 -23
71 -46 35 -65 48 -75 103 -81 63 -6 159 -46 179 -74 19 -27 63 -48 129 -62 89
-19 149 -41 163 -62 36 -50 327 -108 674 -133 131 -10 179 -17 199 -31 24 -15
83 -18 653 -25 2166 -30 17250 -38 19401 -11 l735 9 80 26 c44 14 161 41 260
61 215 43 309 69 333 94 24 25 65 44 150 70 47 14 86 34 110 55 20 18 91 61
157 95 67 34 153 87 191 119 39 31 120 95 180 142 158 124 353 321 385 390 15
30 81 123 148 205 106 131 126 161 157 242 20 51 53 116 74 145 59 80 68 100
79 166 10 60 31 108 76 171 27 37 41 79 50 153 3 26 17 63 31 83 l24 36 10
452 c26 1212 34 3742 35 10162 0 7838 -13 10063 -59 10114 -20 22 -41 80 -66
181 -24 95 -32 112 -71 157 -16 19 -38 67 -54 119 -22 71 -34 95 -65 124 -23
21 -52 66 -73 113 -23 49 -56 98 -89 135 -74 79 -107 123 -167 224 -40 69 -62
94 -104 122 -28 19 -119 96 -202 171 -248 226 -368 315 -423 315 -13 0 -34 12
-48 28 -13 15 -37 41 -52 58 -18 20 -41 34 -67 38 -26 5 -50 19 -71 41 -24 27
-51 39 -135 65 -192 58 -228 71 -262 94 -50 34 -82 43 -269 71 -94 15 -199 36
-232 47 -58 20 -93 21 -746 28 -2472 29 -18455 60 -19945 39z m17838 -1289
c1127 -6 2221 -14 2432 -19 l384 -10 38 -25 c43 -28 86 -45 190 -75 41 -12 78
-30 85 -40 18 -26 68 -54 162 -91 102 -40 188 -101 225 -159 36 -55 79 -97
147 -142 66 -44 98 -82 123 -150 15 -39 37 -69 81 -110 45 -42 60 -62 60 -83
0 -34 16 -66 34 -66 19 0 49 -70 75 -175 12 -49 34 -110 48 -135 25 -44 25
-51 34 -325 45 -1476 52 -16522 9 -19057 l-10 -567 -30 -60 c-17 -33 -42 -110
-56 -171 -31 -140 -38 -156 -73 -189 -16 -15 -35 -47 -41 -72 -23 -86 -71
-159 -171 -264 -27 -27 -55 -66 -63 -85 -16 -40 -92 -115 -176 -175 -90 -63
-160 -126 -160 -141 0 -17 -58 -45 -155 -74 -50 -15 -79 -31 -101 -55 -35 -37
-73 -50 -189 -65 -43 -5 -85 -16 -93 -22 -23 -20 -754 -26 -4407 -37 -2966 -9
-3743 -17 -3851 -37 -19 -3 -38 -13 -43 -22 -7 -13 -14 -13 -52 6 -79 37 -286
47 -999 47 -637 0 -809 -8 -818 -35 -18 -53 -91 -50 -138 6 l-31 36 -39 -42
-39 -42 -5 33 c-7 43 -19 45 -65 9 -46 -36 -53 -37 -65 -6 -24 64 -224 62
-322 -4 l-42 -29 -11 32 c-19 60 -100 63 -126 5 -23 -54 -104 -46 -135 13 -18
36 -26 36 -72 0 -74 -57 -165 -68 -205 -25 -18 19 -39 27 -88 34 -87 13 -630
13 -754 0 -132 -13 -150 -18 -171 -41 -22 -24 -45 -24 -92 0 -59 30 -100 34
-172 15 -54 -14 -134 -17 -476 -21 -439 -5 -669 5 -710 32 -32 21 -71 19 -161
-9 -118 -37 -145 -37 -161 -1 -6 14 -19 25 -27 25 -9 0 -31 -11 -49 -25 -40
-30 -56 -32 -56 -5 0 52 -144 68 -206 21 -31 -22 -35 -23 -475 -31 -1135 -23
-4653 3 -5414 40 -301 15 -734 69 -838 106 -22 8 -55 30 -73 49 -23 26 -40 35
-63 35 -33 0 -52 15 -103 82 -16 22 -38 38 -58 41 -43 9 -103 53 -191 139 -93
91 -157 175 -165 217 -4 21 -20 42 -42 59 -60 46 -82 73 -82 104 0 20 -12 40
-39 67 -29 28 -44 55 -56 98 -31 110 -46 152 -64 175 -35 45 -51 130 -77 403
-17 186 -39 326 -55 357 -27 51 -33 1727 -33 9433 0 8085 5 9349 38 9426 15
36 35 170 56 384 14 136 36 237 59 267 23 31 36 67 61 166 25 105 52 155 142
262 39 47 79 104 89 126 39 91 323 352 457 420 56 29 78 46 86 67 7 17 20 30
36 33 56 12 110 37 152 69 83 65 104 69 403 75 487 10 15930 10 18028 0z"/>
<path d="M13225 37990 c-484 -4 -974 -11 -1088 -15 -196 -6 -211 -8 -243 -30
-19 -13 -61 -29 -92 -36 -99 -20 -161 -48 -177 -79 -10 -19 -25 -31 -47 -35
-52 -11 -109 -48 -184 -122 -83 -81 -138 -152 -195 -253 -23 -41 -55 -91 -71
-111 l-29 -36 -9 -349 c-42 -1578 -35 -12389 9 -13394 7 -173 7 -175 38 -223
17 -27 43 -79 58 -115 46 -115 143 -242 300 -396 99 -97 181 -156 271 -196 38
-17 84 -43 102 -56 44 -35 119 -41 643 -54 455 -11 3039 -29 4227 -30 l722 0
0 -717 c0 -703 10 -1148 30 -1308 18 -142 74 -222 202 -286 35 -17 77 -44 94
-60 27 -26 50 -34 170 -58 143 -29 214 -52 214 -70 0 -14 95 -48 260 -91 171
-45 193 -53 241 -86 27 -18 76 -32 193 -55 176 -34 197 -40 225 -68 21 -21 95
-46 304 -102 70 -19 130 -41 145 -54 33 -27 72 -40 182 -60 119 -22 173 -41
199 -71 25 -29 45 -37 170 -70 53 -13 105 -33 116 -44 29 -27 77 -43 265 -85
189 -43 232 -57 281 -91 42 -29 76 -40 181 -59 117 -21 156 -34 171 -55 20
-28 86 -54 217 -85 178 -42 282 -75 311 -99 15 -13 49 -28 75 -35 132 -34 186
-53 210 -76 33 -31 79 -45 289 -94 175 -40 255 -66 255 -83 0 -14 59 -35 158
-57 108 -24 152 -44 152 -71 0 -26 4 -27 103 -40 152 -19 417 -96 417 -121 0
-16 37 -28 170 -54 158 -32 173 -37 215 -74 37 -32 128 -59 306 -92 93 -17
137 -20 239 -16 230 11 472 63 532 116 31 27 64 39 200 76 31 8 69 26 85 39
32 27 116 53 293 91 162 35 268 69 314 100 66 45 96 56 172 65 65 7 80 12 105
38 32 32 113 63 267 102 98 24 192 58 192 69 0 14 53 32 162 56 107 24 168 47
168 65 0 13 96 47 244 86 137 36 216 67 216 82 0 16 71 40 166 57 117 21 183
43 216 71 34 27 88 45 240 79 152 34 226 59 259 91 19 18 58 33 150 55 137 34
152 40 183 75 15 18 45 30 111 45 156 37 194 49 213 69 19 21 97 51 197 76
126 31 235 68 253 84 32 31 59 40 185 65 141 28 173 38 202 65 29 27 76 45
223 85 155 42 197 59 239 95 23 20 54 33 110 45 154 33 181 44 227 89 24 23
65 50 92 60 114 42 152 88 178 213 46 219 55 684 56 2768 l0 1720 153 43 c83
23 180 46 215 50 52 7 68 14 91 40 19 20 48 36 85 46 31 9 81 23 112 32 31 8
68 27 82 41 35 35 72 49 209 78 73 15 143 37 183 57 75 39 241 191 271 251 28
54 42 198 35 347 -9 160 -18 193 -67 239 -27 27 -39 46 -39 66 0 21 -15 42
-59 84 -53 51 -61 63 -85 145 -25 81 -33 95 -85 146 -49 48 -60 66 -75 121
-21 77 -59 145 -85 154 -30 9 -53 42 -66 92 -9 35 -20 52 -41 64 -16 8 -33 29
-38 45 -21 69 -30 86 -57 99 -39 21 -64 60 -89 140 -28 88 -61 147 -93 164
-31 16 -58 66 -87 159 -18 57 -30 79 -56 99 -23 17 -36 36 -40 61 -9 52 -20
70 -53 87 -38 19 -67 68 -96 160 -17 55 -34 87 -62 118 -23 25 -69 104 -111
187 -77 157 -132 237 -175 258 -29 14 -41 34 -52 86 -7 35 -103 132 -166 169
-26 15 -77 34 -115 42 -45 9 -74 21 -84 34 -21 28 -97 53 -275 91 -175 37
-225 53 -276 87 -21 14 -87 38 -148 54 -124 32 -181 53 -181 68 0 16 -105 45
-328 90 -219 45 -270 60 -308 90 -24 19 -88 36 -237 65 -52 10 -94 25 -125 46
-51 33 -125 58 -277 90 -148 31 -236 59 -267 85 -18 15 -62 31 -125 45 -132
29 -171 43 -216 73 -25 17 -83 36 -175 57 -217 51 -315 79 -342 100 -38 31
-66 40 -190 65 -122 25 -200 51 -200 67 0 15 -68 39 -174 59 -127 24 -164 36
-199 65 -34 29 -120 56 -287 89 -177 36 -272 63 -295 85 -23 21 -126 54 -200
64 -77 11 -158 36 -180 56 -29 26 -132 55 -353 100 -107 21 -195 40 -197 42
-2 2 1 761 7 1688 10 1889 5 4727 -9 4807 -7 38 -17 58 -36 73 -16 13 -29 35
-33 58 -7 41 -32 73 -81 103 -19 12 -36 32 -39 47 -14 56 -49 110 -123 185
-95 98 -151 140 -266 197 -69 35 -91 51 -93 68 -5 31 -42 47 -167 71 -60 12
-133 32 -162 47 l-53 25 -467 10 c-574 12 -8603 20 -9828 9z m-245 -190 c0 -7
7 -7 20 0 26 14 57 5 70 -21 6 -10 19 -19 29 -19 11 0 24 -12 31 -30 7 -16 16
-30 20 -30 15 0 23 -35 27 -120 6 -99 6 -98 -3 -173 -5 -44 -10 -57 -20 -53
-8 3 -21 9 -30 12 -12 5 -14 1 -8 -22 4 -16 12 -35 18 -43 21 -27 31 -77 31
-156 0 -44 4 -83 9 -86 15 -11 -2 -39 -23 -39 -24 0 -36 17 -36 50 0 23 -4 25
-42 25 -22 0 -45 3 -49 8 -4 4 -15 7 -25 7 -21 0 -33 31 -24 60 9 29 -2 42
-25 28 -16 -11 -22 -9 -34 7 -15 20 -15 20 -32 -4 -10 -14 -19 -48 -21 -80 -1
-36 -8 -60 -18 -67 -8 -6 -15 -17 -15 -25 -1 -19 -24 -49 -38 -49 -6 0 -16 9
-22 20 -10 19 -21 20 -240 20 l-230 0 0 55 0 55 229 0 c175 0 230 -3 234 -12
2 -7 6 23 10 67 4 55 11 83 21 91 9 6 16 26 16 45 0 19 7 43 15 53 17 22 11
54 -17 104 -22 40 -22 42 -2 42 12 0 15 6 10 23 -4 12 -9 60 -12 106 -4 69 -1
87 12 102 25 28 44 24 44 -10 0 -16 7 -34 15 -41 8 -7 15 -23 15 -37 0 -13 3
-22 8 -19 4 2 6 31 5 64 -3 89 3 102 43 102 19 0 34 -5 34 -10z m-236 -46 c12
-4 16 -20 16 -55 0 -42 -3 -49 -22 -54 -13 -3 -115 -4 -228 -3 l-205 3 -3 44
c-6 75 -16 71 217 71 115 0 216 -3 225 -6z m16 -369 l0 -55 -230 0 -230 0 0
55 0 55 230 0 230 0 0 -55z m10387 -525 c207 -11 266 -23 271 -55 2 -11 15
-32 28 -46 24 -25 25 -33 35 -245 7 -134 13 -1325 16 -3070 l5 -2852 -34 -10
c-57 -19 -261 -70 -303 -77 -62 -10 -75 -15 -75 -31 0 -23 -73 -50 -190 -72
-107 -20 -190 -48 -190 -62 0 -14 -86 -37 -292 -80 -232 -47 -312 -71 -342
-99 -13 -12 -58 -30 -107 -41 -149 -36 -198 -53 -216 -73 -25 -27 -48 -34
-191 -63 -128 -25 -152 -34 -187 -64 -26 -23 -120 -52 -270 -85 -167 -36 -249
-62 -269 -83 -21 -24 -61 -36 -204 -61 -150 -27 -193 -39 -217 -61 -26 -23
-89 -43 -259 -80 -162 -36 -253 -65 -281 -89 -30 -27 -32 -28 -170 -56 -133
-28 -205 -51 -205 -66 0 -13 -117 -44 -313 -84 -197 -40 -307 -71 -307 -86 0
-15 -58 -36 -179 -65 -69 -16 -125 -35 -148 -51 -48 -33 -101 -49 -206 -63
-129 -17 -263 -57 -343 -101 -45 -25 -97 -44 -136 -51 -87 -14 -170 -61 -248
-138 -73 -72 -108 -126 -145 -221 -19 -48 -37 -75 -76 -110 -41 -36 -54 -56
-64 -95 -7 -31 -20 -53 -32 -59 -38 -19 -53 -37 -53 -62 0 -38 -32 -90 -134
-217 -73 -91 -100 -133 -112 -173 -19 -64 -37 -78 -130 -98 -146 -31 -424 -37
-1484 -30 -1031 6 -1466 -1 -1555 -26 -47 -13 -247 -185 -301 -258 -45 -62
-58 -129 -51 -266 9 -193 67 -313 160 -330 24 -5 45 -17 60 -36 57 -75 63 -80
107 -90 25 -5 52 -19 61 -31 10 -13 35 -24 65 -29 88 -15 1087 -30 1541 -23
445 6 803 -1 803 -17 0 -5 -13 -15 -30 -24 -35 -18 -76 -84 -101 -165 -23 -74
-41 -108 -72 -137 -13 -12 -31 -46 -40 -75 -8 -29 -25 -86 -36 -125 -13 -45
-29 -76 -40 -83 -27 -14 -41 -62 -41 -139 0 -86 12 -126 49 -160 23 -21 31
-38 31 -63 0 -131 221 -339 400 -377 75 -17 140 -41 140 -52 0 -16 78 -45 189
-70 64 -14 118 -32 140 -48 53 -36 154 -64 385 -107 l206 -39 0 -617 0 -618
-2605 0 -2605 0 0 6578 0 6579 113 6 c61 4 956 7 1987 8 1031 1 2233 4 2670 7
716 6 798 9 821 24 14 9 56 19 93 23 217 23 4800 28 5213 5z m1187 -7325 c160
-28 220 -46 251 -74 24 -23 98 -45 221 -66 117 -19 191 -42 197 -59 7 -19 72
-39 257 -81 213 -48 255 -62 286 -90 18 -17 54 -30 122 -45 153 -34 201 -49
256 -80 48 -28 89 -39 416 -115 63 -15 135 -38 158 -52 28 -16 93 -35 181 -53
133 -27 201 -51 201 -70 0 -12 136 -55 220 -70 178 -31 289 -69 333 -114 19
-19 33 -25 47 -21 23 7 194 -21 272 -45 32 -10 73 -31 91 -47 24 -21 53 -33
98 -42 35 -7 75 -15 89 -18 18 -4 -3 -13 -82 -34 -102 -27 -158 -51 -158 -70
0 -11 -118 -45 -184 -54 -79 -11 -175 -44 -186 -65 -13 -24 -76 -44 -220 -70
-139 -25 -172 -35 -217 -65 -18 -13 -82 -35 -143 -49 -61 -14 -159 -38 -219
-52 -74 -17 -125 -35 -155 -55 -35 -24 -77 -37 -184 -59 -143 -29 -170 -38
-202 -70 -23 -23 -84 -42 -244 -75 -214 -45 -312 -73 -348 -98 -20 -13 -65
-29 -100 -36 -158 -30 -230 -51 -259 -75 -34 -29 -110 -54 -259 -86 -155 -32
-241 -59 -281 -86 -26 -18 -77 -32 -190 -54 -177 -34 -204 -43 -241 -82 -23
-25 -33 -28 -92 -28 -62 0 -69 2 -101 34 -36 37 -84 55 -214 82 -46 10 -99 28
-118 41 -37 25 -125 52 -339 102 -139 33 -184 49 -224 81 -17 13 -69 29 -150
45 -129 26 -210 51 -210 65 0 15 -84 42 -255 81 -210 48 -256 63 -289 94 -17
15 -51 29 -101 39 -41 9 -108 23 -149 32 -43 8 -91 26 -113 41 -56 39 -111 57
-273 92 -166 36 -267 67 -277 85 -15 24 -55 38 -196 67 -93 19 -150 35 -167
49 -45 36 -73 47 -193 74 -82 20 -126 35 -147 52 -38 32 -90 49 -229 74 -63
11 -116 21 -118 23 -2 2 36 22 84 45 88 42 202 77 346 107 50 11 88 25 107 41
32 28 132 54 370 99 180 34 232 49 267 79 33 28 104 52 193 66 92 14 159 35
184 59 25 24 123 51 308 86 163 30 267 61 274 80 9 21 97 50 209 69 67 12 123
28 170 51 48 24 127 46 255 75 206 45 264 62 330 96 25 13 108 39 184 59 79
20 162 48 190 65 57 32 134 54 281 80 138 25 211 24 379 -5z m-5808 -1753 c6
-4 13 -14 16 -23 9 -24 110 -55 293 -90 201 -38 258 -54 293 -84 28 -23 103
-47 192 -60 73 -11 147 -35 174 -56 41 -32 88 -48 285 -93 193 -45 261 -68
261 -85 0 -19 37 -30 129 -41 50 -6 121 -22 158 -36 179 -68 232 -86 355 -115
239 -56 289 -71 316 -94 33 -27 72 -40 182 -60 112 -21 174 -41 195 -66 24
-26 117 -53 300 -90 172 -34 239 -54 263 -78 23 -24 66 -38 176 -56 123 -21
197 -43 221 -66 29 -26 88 -45 260 -84 215 -49 254 -62 284 -96 17 -19 35 -29
53 -29 36 0 68 -32 68 -69 0 -32 -31 -77 -60 -86 -26 -8 -65 -75 -90 -157 -20
-65 -48 -103 -103 -141 -17 -11 -29 -30 -33 -55 -9 -51 -20 -69 -51 -84 -19
-10 -29 -26 -39 -63 -7 -30 -21 -56 -34 -65 -52 -35 -80 -74 -100 -138 -31
-102 -55 -144 -104 -185 -40 -33 -48 -47 -71 -124 -27 -86 -34 -97 -114 -165
-11 -10 -23 -30 -26 -45 -11 -51 -25 -73 -49 -83 -19 -7 -29 -23 -42 -65 -13
-46 -23 -62 -55 -83 -26 -18 -48 -46 -65 -82 -14 -30 -33 -69 -41 -87 -23 -46
-74 -69 -125 -54 -21 7 -42 19 -45 27 -9 25 -53 41 -187 69 -130 26 -158 37
-207 76 -15 12 -76 34 -135 51 -70 19 -118 37 -134 53 -32 29 -79 45 -260 85
-172 39 -242 62 -292 96 -25 18 -72 33 -155 50 -154 31 -186 40 -213 64 -29
25 -84 43 -267 85 -176 40 -264 69 -275 90 -11 18 -83 40 -201 60 -102 18
-156 38 -177 66 -20 25 -123 61 -275 95 -129 28 -225 60 -225 74 0 13 -94 45
-193 65 -53 11 -103 28 -125 43 -50 34 -94 48 -267 87 -162 37 -259 67 -284
89 -31 26 -61 36 -186 61 -140 28 -174 42 -199 79 -9 15 -26 26 -37 26 -44 0
-89 29 -105 66 -20 48 -12 77 38 133 23 26 69 100 103 166 40 79 69 124 85
132 33 16 50 41 50 73 0 34 39 95 143 223 63 78 91 122 112 178 21 54 39 85
71 114 26 24 53 64 69 100 47 109 59 127 97 151 23 15 40 34 44 52 3 15 8 35
11 45 2 9 28 35 58 57 40 30 54 47 59 73 16 86 181 214 232 179z m11280 -106
c59 -27 102 -87 136 -187 27 -80 51 -117 98 -150 27 -20 40 -38 48 -70 6 -26
41 -85 82 -143 39 -54 73 -111 76 -125 10 -49 23 -69 51 -83 21 -10 31 -25 40
-62 9 -38 24 -60 66 -100 48 -45 57 -61 81 -136 27 -85 48 -120 72 -120 16 0
56 -67 86 -145 14 -38 38 -74 65 -100 44 -42 63 -79 63 -121 0 -32 -43 -58
-123 -74 -79 -15 -127 -35 -144 -59 -16 -24 -77 -44 -215 -71 -110 -21 -158
-37 -158 -51 0 -15 -73 -46 -175 -73 -182 -49 -264 -76 -279 -92 -25 -24 -74
-41 -193 -63 -121 -23 -181 -44 -189 -65 -9 -24 -95 -54 -268 -96 -174 -42
-236 -62 -236 -79 0 -11 -89 -39 -214 -67 -46 -10 -90 -27 -105 -40 -30 -25
-111 -54 -216 -78 -126 -29 -263 -76 -292 -99 -37 -31 -74 -43 -216 -72 -82
-16 -130 -31 -155 -49 -48 -32 -63 -38 -229 -82 -146 -38 -233 -70 -233 -86 0
-15 -68 -39 -174 -59 -124 -23 -196 -47 -203 -65 -9 -25 -58 -43 -187 -69
-131 -26 -179 -44 -189 -69 -3 -8 -24 -20 -47 -26 -35 -9 -47 -8 -78 7 -30 14
-41 29 -59 73 -38 100 -44 110 -71 122 -21 10 -29 24 -35 61 -8 39 -17 54 -59
88 -51 44 -80 90 -93 149 -12 56 -49 119 -120 205 -44 54 -84 118 -122 195
-59 123 -96 180 -117 180 -15 0 -36 42 -36 71 0 32 -16 55 -54 77 -31 19 -86
102 -86 131 0 6 -9 35 -21 66 -14 39 -29 60 -49 70 -19 10 -34 30 -46 62 -38
107 -53 133 -79 143 -37 14 -43 39 -15 62 23 19 71 34 203 63 45 10 89 26 105
39 39 33 94 51 287 95 191 44 215 52 265 86 22 15 79 34 147 50 124 28 147 36
183 65 28 22 134 50 280 75 174 29 309 65 339 91 38 32 67 42 201 69 124 25
152 34 190 65 27 21 130 51 342 100 98 22 149 39 181 61 26 17 79 37 128 49
131 31 191 51 219 71 32 24 92 41 290 79 198 38 300 66 325 90 31 29 84 48
181 65 125 22 159 32 192 60 57 48 306 113 437 114 53 1 82 -5 121 -23z
m-5103 -2733 c8 -10 25 -40 37 -68 11 -27 36 -64 54 -81 26 -24 40 -52 65
-131 26 -84 36 -105 64 -126 26 -19 46 -53 82 -138 34 -78 60 -123 86 -148 24
-23 49 -63 67 -109 28 -67 52 -103 148 -222 20 -25 54 -81 74 -125 39 -82 80
-129 156 -177 23 -15 59 -48 80 -74 22 -26 64 -73 94 -104 79 -82 140 -100
344 -100 213 -1 363 27 404 75 22 25 63 39 232 80 70 16 118 34 145 53 45 33
100 52 230 82 134 31 213 59 230 83 11 16 40 26 127 44 177 36 215 50 262 93
44 41 48 42 206 70 99 18 206 55 240 83 19 17 57 31 107 42 153 33 235 58 262
81 41 34 91 51 254 84 145 29 188 44 274 96 24 14 97 39 164 55 115 28 210 66
224 89 10 15 81 50 104 50 11 0 22 -4 25 -8 41 -67 55 -1011 36 -2507 -9 -683
-18 -883 -40 -924 -5 -10 -23 -21 -41 -25 -17 -3 -52 -21 -78 -40 -67 -48 -97
-62 -192 -86 -110 -27 -152 -46 -185 -83 -25 -28 -29 -29 -90 -24 -58 4 -64 3
-64 -14 0 -28 -187 -116 -307 -145 -88 -21 -100 -27 -141 -68 -24 -25 -58 -50
-76 -55 -61 -20 -213 -42 -326 -48 -100 -5 -119 -9 -143 -29 -26 -22 -66 -32
-157 -37 -41 -2 -45 -4 -50 -32 -5 -27 -10 -31 -71 -45 -37 -8 -73 -21 -81
-27 -37 -32 -179 -96 -238 -109 -37 -7 -83 -20 -103 -29 -20 -8 -46 -15 -58
-15 -11 0 -28 -8 -37 -19 -18 -20 -90 -41 -140 -41 -16 0 -42 -10 -57 -22 -25
-19 -32 -20 -69 -10 -39 10 -43 9 -71 -18 -16 -15 -45 -31 -62 -35 -18 -3 -35
-11 -38 -16 -4 -5 -22 -9 -41 -9 -23 0 -34 -5 -34 -15 0 -28 -46 -44 -218 -80
-192 -39 -267 -64 -288 -94 -8 -11 -30 -25 -49 -31 -19 -6 -35 -18 -35 -25 0
-23 -21 -30 -109 -36 -63 -4 -87 -10 -96 -23 -19 -26 -97 -52 -272 -91 -216
-48 -246 -59 -296 -109 -40 -40 -46 -43 -111 -48 -53 -5 -85 -14 -138 -42 -65
-34 -227 -76 -292 -76 l-25 0 24 36 c30 44 32 80 6 89 -12 4 -21 19 -25 45 -3
22 -14 43 -24 49 -14 8 -15 12 -4 22 16 17 16 151 0 167 -9 9 -9 12 1 12 10 0
11 20 7 88 -24 352 -15 666 21 736 11 21 12 31 3 36 -29 18 -34 354 -35 2185
0 1347 3 1874 12 1998 15 198 19 210 56 170z m-1163 -2844 c0 -1845 -3 -2809
-10 -2809 -49 0 -231 67 -245 90 -9 15 -69 38 -145 57 -75 18 -135 46 -143 66
-6 16 -105 46 -292 88 -145 32 -245 64 -245 79 0 13 -60 37 -135 54 -91 21
-124 34 -155 61 -31 28 -87 46 -260 85 -181 41 -252 65 -288 100 -22 21 -50
32 -108 45 -110 23 -212 53 -219 65 -13 21 -70 42 -214 80 -170 44 -211 60
-252 94 -19 16 -56 30 -106 41 -199 41 -225 49 -259 76 -40 32 -103 54 -295
103 -162 42 -187 51 -216 78 -14 13 -70 32 -159 54 -112 27 -143 39 -168 63
-37 35 -89 52 -266 86 -144 29 -215 54 -236 84 -13 18 -50 30 -209 67 -76 18
-175 61 -216 94 -14 12 -43 27 -65 34 -24 9 -44 24 -52 40 -27 54 -33 322 -39
1835 l-6 1553 92 -3 c90 -4 93 -5 119 -36 32 -38 48 -45 192 -77 79 -18 120
-32 141 -50 34 -29 108 -53 299 -96 164 -37 221 -55 250 -80 23 -20 62 -32
214 -68 54 -13 98 -30 111 -42 29 -28 110 -52 293 -90 175 -36 268 -65 303
-95 15 -12 61 -29 105 -39 139 -31 188 -47 224 -71 48 -33 67 -39 231 -75 180
-40 299 -77 305 -95 7 -17 65 -36 196 -65 53 -12 116 -32 140 -45 85 -47 108
-55 195 -70 48 -8 171 -21 273 -29 l185 -15 130 132 c147 149 206 224 223 282
7 24 44 80 93 140 109 134 135 173 149 223 6 24 20 51 31 60 71 60 88 84 114
164 31 97 49 128 128 223 71 84 97 129 128 215 25 68 107 169 128 155 8 -4 11
-815 11 -2816z"/>
<path d="M12975 37580 c-11 -4 -33 -5 -49 -2 -27 5 -29 3 -23 -19 4 -13 7 -27
7 -31 0 -3 9 -4 21 -1 12 3 24 1 28 -6 4 -6 20 -12 37 -13 16 -1 35 -6 42 -11
18 -14 52 20 52 54 0 15 -4 31 -10 34 -5 3 -10 1 -10 -4 0 -6 -7 -11 -15 -11
-8 0 -15 -6 -16 -12 0 -7 -4 -3 -9 10 -10 23 -22 26 -55 12z"/>
<path d="M17110 35153 c-60 -9 -74 -17 -158 -87 -124 -104 -374 -353 -406
-403 -37 -61 -233 -260 -681 -693 -435 -421 -480 -461 -547 -496 -56 -28 -87
-30 -135 -8 -54 26 -152 129 -178 187 -52 119 -431 481 -539 517 -22 7 -42 24
-54 45 -16 26 -30 35 -69 43 -89 19 -217 24 -331 13 -140 -14 -190 -30 -222
-72 -14 -17 -56 -70 -94 -118 -37 -47 -75 -99 -84 -116 -21 -39 -28 -189 -13
-285 21 -135 44 -189 124 -282 40 -47 90 -108 111 -136 41 -56 77 -86 117 -95
14 -4 48 -30 75 -59 103 -109 135 -138 161 -144 38 -9 63 -33 63 -59 0 -42 92
-148 314 -366 370 -362 421 -402 546 -429 90 -19 270 -25 316 -10 40 13 71 42
582 545 112 110 239 243 282 295 42 52 268 289 502 527 461 468 617 633 693
733 27 36 69 90 94 120 48 60 91 142 91 177 0 13 12 32 30 44 44 33 55 77 55
219 0 160 -17 213 -89 286 -59 58 -131 87 -256 104 -73 9 -250 11 -300 3z"/>
<path d="M19238 34822 c-61 -63 -100 -112 -109 -137 -19 -53 -19 -283 0 -347
29 -100 186 -249 321 -304 60 -24 82 -27 285 -36 223 -9 1738 -3 2003 9 l143
6 49 101 c26 55 67 126 89 156 51 67 65 116 56 194 -15 136 -74 247 -196 369
l-88 87 -1229 0 -1229 0 -95 -98z"/>
<path d="M14400 30679 c-525 -9 -600 -20 -698 -98 -52 -42 -111 -121 -118
-160 -4 -21 -15 -36 -29 -41 -12 -5 -28 -23 -34 -42 -18 -52 -25 -196 -12
-278 10 -62 16 -79 40 -100 16 -14 34 -42 41 -63 13 -40 74 -107 170 -187 l55
-45 1780 7 c979 4 2226 10 2771 14 l991 6 88 78 c48 43 103 86 123 96 49 25
58 38 82 114 18 62 49 110 70 110 33 0 37 229 6 304 -8 19 -63 93 -123 165
l-108 130 -2350 -1 c-1292 -1 -2528 -5 -2745 -9z"/>
<path d="M29431 21084 c0 -11 3 -14 6 -6 3 7 2 16 -1 19 -3 4 -6 -2 -5 -13z"/>
<path d="M24755 19420 c-7 -12 2 -12 30 0 19 8 19 9 -2 9 -12 1 -25 -3 -28 -9z"/>
<path d="M23072 22125 c0 -16 2 -22 5 -12 2 9 2 23 0 30 -3 6 -5 -1 -5 -18z"/>
<path d="M39570 13370 c-275 -8 -326 -13 -380 -40 -39 -19 -115 -39 -270 -70
-153 -30 -263 -66 -294 -95 -14 -13 -52 -32 -84 -41 -108 -30 -121 -35 -149
-64 -15 -16 -66 -46 -113 -68 -108 -50 -166 -94 -371 -279 -232 -210 -268
-253 -343 -400 -20 -40 -49 -86 -65 -102 -18 -18 -37 -54 -47 -88 -30 -106
-55 -167 -80 -200 -35 -46 -42 -95 -55 -372 -9 -183 -9 -310 0 -505 14 -323
21 -368 66 -436 19 -28 44 -82 55 -119 19 -64 29 -78 91 -134 14 -13 41 -60
60 -106 37 -91 46 -102 134 -166 33 -24 123 -101 200 -171 218 -198 332 -284
379 -284 29 0 61 -21 84 -56 29 -44 67 -67 164 -100 86 -28 117 -47 212 -128
76 -64 115 -86 234 -128 113 -39 138 -53 176 -93 22 -24 51 -40 101 -55 110
-34 124 -41 146 -72 23 -31 67 -56 145 -82 72 -24 141 -70 165 -111 14 -23 39
-44 73 -60 95 -46 442 -387 482 -475 9 -19 29 -46 45 -60 25 -21 30 -36 40
-105 12 -85 6 -256 -11 -314 -5 -18 -18 -40 -29 -48 -13 -9 -32 -51 -52 -116
-46 -153 -112 -242 -212 -287 -122 -55 -174 -81 -197 -99 -48 -39 -146 -46
-615 -46 -494 0 -563 6 -641 55 -27 16 -93 41 -147 55 -125 32 -164 53 -210
108 -21 26 -48 47 -64 50 -45 10 -158 102 -304 247 -154 154 -246 265 -290
353 -23 45 -33 57 -40 46 -5 -8 -9 -72 -9 -144 -1 -222 -22 -377 -50 -360 -46
28 -51 -342 -6 -395 7 -8 16 -26 19 -40 11 -47 27 -253 42 -555 16 -310 28
-447 46 -502 15 -47 73 -63 348 -94 234 -26 296 -37 321 -59 31 -26 165 -42
514 -60 280 -15 1025 -15 1206 -1 238 19 403 40 425 55 29 19 103 40 263 76
171 39 246 64 291 100 20 16 74 41 121 56 66 21 93 35 120 64 19 21 80 67 135
102 201 131 467 410 544 572 16 35 47 84 69 109 28 32 44 64 57 114 23 84 57
164 78 181 23 20 35 95 47 287 19 319 8 926 -19 1069 -5 26 -18 57 -28 69 -22
24 -37 50 -78 139 -15 32 -34 60 -46 63 -24 8 -42 43 -75 146 -22 71 -33 90
-78 133 -40 39 -59 68 -79 121 -34 87 -35 88 -75 109 -18 9 -70 51 -115 93
-75 69 -140 113 -167 113 -5 0 -38 28 -73 63 -34 35 -114 97 -178 140 -64 42
-134 94 -155 116 -25 25 -84 60 -165 99 -77 37 -132 70 -142 85 -11 18 -42 33
-116 56 -89 29 -105 37 -134 73 -37 47 -77 69 -186 103 -61 20 -85 32 -101 55
-16 23 -39 35 -103 55 -98 30 -142 55 -165 95 -18 31 -66 60 -101 60 -21 0
-26 4 -61 52 -13 16 -47 36 -93 54 -70 26 -102 53 -187 152 -11 12 -34 25 -52
29 -36 7 -94 62 -188 180 -79 99 -107 170 -122 309 -16 135 -5 171 77 266 110
128 249 228 380 273 44 15 92 38 106 51 38 37 154 47 469 42 275 -5 307 -9
339 -49 13 -16 35 -23 101 -30 158 -18 335 -75 385 -126 19 -20 48 -36 76 -42
26 -6 51 -19 61 -33 50 -67 62 -78 97 -88 20 -5 58 -23 83 -40 71 -47 201
-189 239 -261 44 -83 63 -87 83 -17 72 256 66 1481 -9 1664 -12 29 -18 32 -71
39 -76 9 -143 32 -170 57 -43 39 -339 119 -494 133 -129 12 -152 17 -172 37
-31 31 -84 38 -373 48 -280 10 -310 10 -695 0z"/>
<path d="M7183 13109 c-33 -34 -3 -109 43 -109 37 0 109 -56 222 -175 172
-178 167 -169 166 -344 -1 -175 -23 -311 -64 -396 -32 -67 -59 -166 -90 -335
-31 -168 -68 -300 -95 -340 -22 -33 -33 -71 -70 -253 -10 -48 -25 -87 -40
-105 -27 -32 -48 -101 -70 -228 -19 -111 -42 -194 -56 -194 -17 0 -38 -65 -64
-196 -24 -121 -46 -184 -64 -184 -15 0 -31 -52 -62 -202 -34 -168 -42 -194
-69 -223 -22 -24 -49 -117 -90 -320 -38 -184 -46 -210 -77 -256 -17 -25 -33
-79 -52 -177 -29 -137 -42 -177 -67 -197 -19 -15 -41 -103 -64 -255 -24 -157
-45 -239 -65 -246 -17 -7 -28 -38 -65 -190 -18 -70 -37 -125 -49 -138 -28 -29
-37 -59 -61 -188 -28 -147 -47 -214 -70 -247 -27 -37 -54 -120 -85 -263 -32
-149 -60 -248 -87 -308 -12 -25 -34 -110 -49 -190 -33 -167 -41 -188 -80 -230
-22 -22 -29 -40 -29 -68 0 -54 -26 -147 -58 -206 -41 -78 -128 -162 -181 -176
-33 -9 -46 -18 -54 -40 -12 -30 -43 -50 -81 -50 -25 0 -75 -34 -65 -44 19 -19
233 -28 834 -33 682 -5 968 3 1022 29 21 10 29 24 39 67 7 33 20 61 33 70 26
20 49 110 90 343 37 209 64 320 90 362 24 39 45 120 66 256 18 122 40 196 61
208 21 12 33 73 34 165 l0 77 1117 -2 1117 -3 42 -237 c53 -302 69 -368 104
-420 19 -28 34 -72 45 -128 43 -229 62 -290 85 -290 24 0 5 -32 -66 -115 -42
-49 -84 -107 -94 -130 -10 -22 -24 -56 -33 -75 -8 -20 -38 -61 -66 -92 -28
-30 -55 -67 -60 -82 -9 -23 -7 -30 20 -59 26 -27 29 -29 24 -10 -5 18 -1 25
20 33 54 21 454 30 1308 30 829 0 877 1 877 18 -1 46 -30 147 -49 171 -36 44
-49 83 -76 231 -26 143 -46 210 -63 210 -14 0 -50 133 -82 306 -37 201 -69
332 -85 348 -25 25 -44 75 -60 157 -25 133 -46 207 -62 220 -26 22 -35 50 -68
216 -26 127 -40 174 -60 203 -20 29 -34 74 -56 187 -30 154 -54 233 -70 233
-17 0 -47 82 -64 175 -21 118 -32 153 -62 197 -31 46 -45 92 -88 297 -40 194
-60 265 -79 283 -26 27 -39 64 -67 201 -19 94 -35 150 -49 167 -31 38 -40 65
-66 192 -26 128 -42 176 -67 197 -21 17 -42 88 -62 205 -20 116 -42 184 -71
218 -22 27 -36 80 -74 272 -12 65 -27 111 -44 135 -29 42 -54 128 -96 336 -38
184 -46 210 -77 257 -17 25 -32 75 -49 160 -25 129 -50 208 -64 208 -18 0 -30
41 -61 196 -31 157 -52 224 -68 224 -16 0 -39 74 -61 191 -26 142 -45 201 -72
225 -25 23 -35 47 -62 154 l-22 85 -1110 7 c-1004 7 -1577 18 -1659 34 -18 3
-35 0 -42 -7z m1685 -1898 c25 -13 36 -45 62 -191 26 -141 45 -202 70 -225 25
-23 45 -85 70 -225 25 -140 33 -164 64 -200 16 -20 31 -61 46 -127 27 -123 49
-194 66 -213 19 -23 50 -145 84 -340 38 -214 66 -329 84 -349 24 -26 35 -66
61 -214 29 -167 49 -239 72 -258 9 -8 23 -30 31 -49 14 -32 51 -165 52 -182 0
-5 -349 -8 -775 -8 -444 0 -775 4 -775 9 0 13 78 339 92 383 6 21 19 45 30 54
22 21 43 89 63 208 21 120 43 198 61 212 24 19 41 74 64 199 25 145 44 205 70
225 22 17 44 95 60 213 17 124 39 209 61 239 23 33 49 140 84 348 40 236 65
331 96 366 20 21 39 102 39 164 0 52 11 56 31 11 9 -22 26 -44 37 -50z"/>
<path d="M1900 13100 c-990 -7 -1386 -16 -1395 -31 -14 -21 264 -301 397 -401
82 -61 99 -97 128 -268 11 -69 30 -143 41 -165 18 -34 22 -69 30 -235 15 -302
25 -2395 17 -3725 -6 -1134 -15 -1510 -36 -1524 -21 -14 -33 -57 -41 -151 -10
-112 -40 -181 -95 -224 -18 -13 -79 -67 -136 -121 -58 -53 -138 -120 -178
-148 -63 -45 -70 -52 -52 -59 41 -15 464 -28 1275 -38 1127 -14 1402 -26 1445
-65 25 -23 30 -19 30 24 0 50 -25 81 -93 116 -103 51 -273 229 -332 346 -14
26 -28 73 -31 104 -5 38 -15 66 -30 85 -21 24 -25 44 -34 171 -7 82 -14 575
-17 1137 l-6 992 1065 0 1065 0 16 103 c19 121 42 200 63 222 22 21 42 90 60
205 28 182 46 253 80 319 19 36 45 112 58 169 l24 102 -732 0 c-884 0 -1587
14 -1625 33 -17 8 -31 27 -39 52 -22 67 -31 387 -32 1109 l0 688 129 -3 c71
-2 133 -7 137 -12 4 -4 -2 -17 -14 -30 -12 -13 -22 -26 -22 -29 0 -3 22 -8 48
-12 62 -8 150 9 177 34 30 28 171 38 615 46 355 6 877 -7 966 -25 22 -4 50
-17 62 -29 14 -14 40 -23 79 -27 96 -11 124 -22 210 -82 45 -32 110 -74 145
-94 37 -21 73 -51 87 -73 14 -20 36 -39 50 -43 38 -8 83 -44 214 -171 75 -72
124 -112 135 -110 13 3 18 16 20 65 3 54 0 64 -22 85 -30 29 -41 69 -61 228
-25 200 -45 301 -71 357 -30 64 -56 173 -89 366 -34 199 -64 325 -81 342 -29
29 -47 106 -81 345 l-8 55 -1260 1 c-693 0 -1708 -3 -2255 -6z"/>
<path d="M19260 13100 c-338 -8 -575 -22 -587 -34 -13 -13 44 -75 288 -317
l260 -255 -7 -2982 -7 -2982 -71 -59 c-39 -32 -145 -127 -236 -210 -91 -84
-187 -166 -213 -184 -37 -24 -44 -33 -33 -39 40 -22 520 -29 2367 -35 l1976
-5 5 125 c5 117 7 129 32 166 37 52 59 146 101 414 36 229 57 321 80 347 16
19 41 134 55 260 15 130 46 255 70 288 21 28 53 141 65 228 5 41 3 54 -12 73
-16 19 -25 22 -51 16 -27 -5 -36 -16 -61 -68 -44 -92 -172 -225 -256 -267 -47
-23 -101 -66 -193 -154 -141 -133 -197 -169 -299 -193 -131 -31 -1465 -28
-1622 3 -35 7 -43 39 -12 49 11 3 22 13 26 23 16 43 26 375 31 1127 6 786 -6
1599 -25 1716 -4 25 -17 56 -29 69 -30 32 -30 107 -1 144 12 15 24 51 29 89
15 108 30 521 40 1137 12 708 27 973 57 1023 17 30 201 232 251 277 31 28 82
63 112 77 106 50 146 93 100 108 -60 19 -319 26 -1055 29 -451 2 -980 0 -1175
-4z"/>
<path d="M24585 13099 c-521 -6 -724 -15 -742 -33 -14 -14 19 -53 71 -86 117
-72 196 -138 293 -246 98 -108 101 -112 112 -178 23 -132 31 -429 42 -1656 12
-1366 6 -3908 -10 -4169 -6 -98 -17 -185 -27 -215 -46 -142 -152 -287 -225
-306 -41 -11 -156 -99 -224 -170 l-40 -43 1150 7 c1044 6 1479 15 1508 33 5 3
-14 18 -44 33 -31 16 -61 40 -70 56 -10 20 -29 32 -59 41 -53 15 -73 33 -117
102 -19 29 -50 70 -69 91 -27 30 -36 50 -44 106 -14 93 -29 804 -30 1380 l0
472 136 133 c160 157 264 275 264 300 0 43 157 209 197 209 22 0 58 -46 73
-92 20 -64 40 -100 70 -128 19 -18 39 -63 70 -155 49 -148 63 -180 96 -215 15
-16 33 -61 50 -125 31 -117 37 -130 78 -171 18 -17 38 -51 45 -75 20 -66 48
-117 70 -124 23 -7 55 -78 71 -160 14 -70 34 -111 66 -141 13 -13 32 -54 45
-95 25 -85 55 -149 69 -149 13 0 53 -81 80 -165 31 -96 46 -124 89 -166 21
-21 42 -54 50 -80 21 -70 49 -117 78 -131 17 -8 29 -24 33 -43 4 -16 14 -45
24 -62 32 -63 182 -239 326 -384 125 -126 155 -150 220 -182 102 -49 221 -77
370 -88 230 -16 1127 -29 1975 -29 1034 1 1277 11 1290 53 2 7 6 29 10 50 3
22 16 47 31 60 32 27 50 91 74 254 24 163 35 208 60 231 24 22 44 109 65 277
19 157 29 199 60 245 30 45 50 124 72 283 l17 127 916 0 c822 0 1186 -8 1241
-25 11 -4 19 -15 19 -26 0 -11 7 -22 15 -26 9 -3 22 -18 30 -34 26 -49 65
-211 71 -295 6 -73 9 -81 25 -77 26 7 47 -45 70 -177 29 -162 40 -200 76 -270
42 -81 65 -196 51 -248 -14 -51 -36 -79 -171 -222 -129 -137 -179 -204 -175
-235 5 -31 47 -32 72 -1 19 24 31 27 131 36 61 5 416 14 790 19 1055 15 1275
20 1285 26 5 3 -2 29 -15 58 -13 28 -33 104 -45 167 -24 137 -36 178 -61 205
-26 30 -35 59 -68 229 -29 151 -43 196 -61 196 -12 0 -36 70 -61 180 -22 98
-43 150 -59 150 -13 0 -36 85 -60 225 -15 86 -30 140 -55 190 -41 85 -46 102
-84 280 -38 175 -55 234 -91 310 -18 36 -39 113 -55 195 -27 134 -55 220 -73
220 -14 0 -40 69 -62 171 -23 101 -44 159 -59 159 -15 0 -38 82 -62 215 -20
119 -49 205 -67 205 -15 0 -39 69 -57 161 -28 148 -45 211 -69 253 -29 50 -44
102 -91 315 -38 169 -70 271 -85 271 -12 0 -33 77 -60 212 -21 111 -37 158
-52 158 -18 0 -37 70 -63 226 -27 159 -44 218 -69 238 -19 15 -41 91 -67 229
-14 78 -31 137 -50 171 -34 65 -49 115 -94 321 -40 182 -60 249 -86 285 -10
14 -28 63 -39 110 -31 132 -49 187 -66 201 -29 24 -44 68 -73 216 -34 171 -43
198 -69 212 -11 6 -27 28 -35 49 -14 34 -22 41 -62 51 -93 23 -495 33 -1470
34 -1001 2 -1138 -2 -1169 -33 -17 -17 27 -63 99 -103 145 -80 312 -233 360
-330 46 -96 47 -241 0 -291 -28 -30 -39 -66 -60 -191 -19 -109 -52 -225 -65
-225 -18 0 -39 -58 -60 -166 -28 -142 -38 -174 -65 -204 -28 -31 -38 -63 -70
-223 -25 -128 -38 -165 -75 -223 -13 -20 -29 -82 -44 -177 -31 -183 -42 -223
-71 -267 -26 -38 -56 -139 -105 -352 -22 -95 -40 -149 -60 -180 -15 -23 -33
-70 -40 -103 -36 -185 -53 -248 -72 -267 -32 -32 -47 -79 -68 -215 -28 -175
-45 -223 -76 -223 -21 0 -24 -4 -24 -40 0 -90 -57 -328 -88 -362 -18 -21 -44
-113 -78 -273 -36 -170 -59 -248 -93 -318 -16 -34 -37 -100 -46 -147 -34 -181
-57 -260 -76 -260 -16 0 -38 -58 -68 -179 -20 -83 -38 -131 -54 -150 -29 -35
-39 -71 -71 -272 -27 -168 -36 -198 -66 -236 -24 -30 -36 -73 -61 -211 -26
-145 -36 -177 -64 -211 -15 -17 -34 -62 -45 -108 -37 -146 -113 -265 -263
-410 -100 -98 -115 -101 -172 -42 -22 22 -69 56 -105 74 -75 38 -118 81 -185
184 -27 41 -95 123 -152 183 -59 63 -105 121 -109 136 -10 47 -23 72 -38 72
-23 0 -45 38 -72 128 -20 64 -35 93 -64 123 -36 38 -48 61 -105 217 -15 40
-42 91 -61 113 -22 27 -43 70 -60 127 -22 71 -34 93 -65 122 -25 23 -45 54
-58 92 -25 74 -39 98 -71 128 -26 25 -38 54 -75 193 -10 34 -27 70 -44 88 -31
32 -38 47 -71 154 -13 42 -33 82 -50 100 -29 30 -68 108 -111 224 -13 35 -37
77 -52 94 -36 39 -49 66 -76 155 -16 53 -32 84 -56 108 -25 24 -41 55 -56 107
-27 88 -45 125 -75 153 -13 12 -30 47 -38 78 -9 31 -23 81 -32 112 -10 39 -26
67 -53 93 -33 32 -81 128 -81 161 0 4 -14 22 -30 39 -35 34 -67 102 -100 211
-29 97 -56 150 -90 178 -19 15 -36 45 -51 90 -28 84 -43 108 -75 116 -20 5
-24 12 -24 45 0 40 5 46 88 120 23 21 32 38 32 60 0 19 8 38 21 49 54 46 82
80 114 136 36 63 75 114 183 236 34 39 65 85 69 101 5 27 24 47 104 108 17 13
40 45 51 70 13 30 58 85 134 163 63 64 114 124 114 133 0 45 82 164 200 289
43 47 86 102 95 123 9 21 42 65 74 98 77 79 131 152 131 177 0 19 30 52 88 95
16 12 48 58 71 102 49 94 81 134 131 166 26 16 40 35 48 64 9 28 40 70 102
136 54 59 93 111 101 133 15 47 32 66 95 108 28 18 57 45 64 60 13 23 13 27
-4 39 -10 8 -44 17 -75 22 -31 4 -423 7 -871 5 -770 -2 -816 -3 -840 -20 -13
-10 -46 -59 -72 -108 -44 -82 -89 -137 -131 -160 -10 -6 -26 -34 -37 -64 -11
-30 -29 -62 -41 -70 -45 -31 -89 -79 -89 -96 0 -19 -13 -37 -141 -194 -36 -44
-92 -128 -123 -186 -32 -58 -92 -149 -135 -202 -101 -126 -110 -142 -136 -215
-15 -44 -27 -63 -40 -65 -29 -6 -51 -28 -84 -86 -16 -28 -60 -86 -97 -130
-106 -121 -142 -173 -159 -232 -12 -42 -31 -72 -85 -130 -42 -46 -74 -92 -82
-117 -9 -29 -25 -49 -58 -72 -34 -24 -49 -44 -65 -85 -16 -41 -31 -61 -65 -85
-41 -29 -50 -44 -64 -106 -4 -16 -19 -35 -40 -47 -27 -16 -39 -35 -61 -93 -21
-55 -41 -86 -76 -120 -54 -54 -70 -80 -94 -164 -9 -33 -26 -72 -37 -87 -22
-32 -62 -38 -72 -11 -24 62 -28 294 -22 1323 l7 1085 118 120 c124 127 161
173 161 200 0 25 47 62 109 85 67 25 131 67 131 87 0 7 -11 18 -25 23 -73 28
-923 40 -1970 29z m8973 -1821 c5 -7 13 -33 17 -58 10 -67 25 -113 45 -135 26
-29 55 -135 95 -350 40 -216 57 -278 86 -318 14 -19 31 -80 51 -175 30 -150
39 -175 68 -204 18 -17 35 -81 70 -263 13 -70 28 -119 41 -135 34 -42 45 -80
74 -233 22 -118 33 -155 56 -190 34 -49 43 -77 69 -224 25 -139 44 -200 70
-228 24 -25 41 -77 31 -94 -20 -32 -74 -35 -828 -39 -721 -3 -753 -2 -753 15
1 60 69 263 89 263 14 0 31 50 51 158 36 186 51 240 75 266 23 25 38 79 75
271 14 73 29 122 45 145 25 36 57 155 95 343 25 126 50 204 79 244 21 31 39
106 71 313 12 74 28 146 36 160 40 74 55 115 74 219 25 128 52 216 77 243 19
21 27 22 41 6z"/>
<path d="M13255 13089 c-403 -6 -555 -13 -555 -26 0 -19 32 -49 103 -97 87
-58 110 -83 147 -156 33 -65 118 -168 205 -246 l75 -69 0 -2991 0 -2991 -133
-130 c-85 -83 -158 -144 -202 -171 -41 -23 -106 -76 -155 -126 l-85 -86 1885
0 c2255 1 3025 12 3133 46 28 9 67 98 93 213 34 153 40 169 72 205 23 27 35
60 61 169 22 91 38 140 52 153 24 22 50 106 95 304 43 194 59 251 83 292 11
18 27 58 35 88 23 80 46 243 36 254 -6 5 -31 -9 -62 -36 -29 -25 -73 -54 -98
-65 -25 -11 -90 -61 -145 -111 -55 -50 -128 -107 -161 -127 -72 -42 -99 -69
-108 -107 -5 -22 -15 -30 -48 -38 -83 -23 -417 -29 -1505 -30 l-1113 0 0 628
c0 765 12 1126 36 1153 32 36 82 42 386 46 361 6 483 -4 542 -45 38 -26 43
-27 180 -26 161 0 236 14 278 49 25 21 40 25 92 25 72 0 152 -21 189 -50 33
-26 35 -26 33 13 -1 30 1 32 38 35 56 5 86 -5 86 -27 0 -27 49 -41 145 -41
105 0 116 11 146 138 12 53 31 105 45 124 36 50 44 73 69 198 28 138 37 164
74 205 19 22 35 59 50 121 26 102 55 174 71 174 14 0 49 77 50 108 0 62 -142
70 -1350 77 -503 3 -970 8 -1037 11 l-123 6 0 895 0 896 963 -6 c529 -4 1032
-11 1116 -17 145 -9 157 -12 181 -35 15 -15 61 -36 106 -50 98 -30 142 -58
269 -170 156 -138 288 -275 316 -330 28 -55 66 -78 97 -58 37 24 8 288 -44
400 -27 57 -47 144 -64 273 -20 154 -41 244 -66 281 -18 27 -30 71 -49 185
-30 176 -48 250 -69 273 -22 25 -33 60 -61 197 -13 69 -33 144 -44 168 l-19
44 -653 6 c-973 9 -3170 12 -3684 5z"/>
<path d="M2920 2343 c0 -887 10 -1368 28 -1438 l8 -30 211 -3 211 -2 6 27 c19
84 27 432 33 1361 l6 1032 -252 0 -251 0 0 -947z"/>
<path d="M4723 3281 c-24 -4 -45 -10 -48 -13 -3 -3 -9 -546 -12 -1207 l-6
-1201 201 0 202 0 0 513 c1 559 13 990 30 1050 7 22 16 37 23 34 23 -7 56 -69
67 -125 19 -89 56 -159 100 -187 38 -24 43 -32 55 -93 4 -19 17 -40 31 -49 29
-19 50 -56 71 -127 21 -71 51 -126 68 -126 18 0 57 -53 84 -115 24 -54 57 -95
78 -95 15 0 47 -59 63 -120 20 -73 48 -118 90 -145 36 -23 60 -67 60 -113 0
-7 16 -22 35 -33 25 -15 38 -32 45 -58 12 -46 65 -117 114 -155 71 -54 99 -60
251 -60 78 1 170 4 207 8 l66 7 6 42 c13 89 24 1218 15 1672 -8 454 -16 575
-40 629 -7 15 -31 33 -63 47 -96 42 -308 36 -349 -9 -21 -24 -26 -143 -37
-872 -5 -338 -13 -628 -18 -645 l-9 -30 -12 28 c-6 16 -11 39 -11 53 0 18 -10
31 -35 45 -19 12 -37 31 -39 43 -3 11 -7 33 -10 48 -4 15 -18 35 -33 45 -59
40 -83 75 -108 158 -25 83 -32 92 -112 164 -24 21 -33 38 -33 60 0 22 -11 42
-39 71 -23 24 -53 73 -76 126 -48 113 -67 142 -104 165 -18 11 -31 27 -31 39
0 35 -27 87 -88 173 -57 79 -74 113 -86 169 -4 17 -16 29 -36 37 -24 8 -36 23
-55 65 -38 87 -49 91 -255 93 -96 1 -194 -2 -217 -6z"/>
<path d="M7454 3273 c3 -10 13 -51 22 -92 20 -89 39 -137 69 -173 23 -28 39
-86 75 -273 13 -70 28 -119 41 -135 34 -44 48 -84 74 -228 28 -158 36 -183 64
-211 20 -20 41 -84 61 -186 14 -69 44 -145 59 -145 14 0 38 -81 60 -200 25
-142 37 -183 61 -210 28 -33 53 -118 95 -330 20 -101 38 -187 40 -191 3 -3 31
-9 62 -13 47 -5 608 -35 664 -36 13 0 20 21 33 93 18 95 40 153 76 197 13 17
28 62 40 130 34 179 58 268 79 297 22 30 49 127 74 262 10 53 25 96 41 120 32
46 47 94 91 306 41 198 60 262 86 291 11 11 28 58 39 105 47 195 61 242 80
266 11 14 27 49 35 77 15 50 55 256 55 284 0 12 -31 13 -188 10 -215 -3 -232
-9 -253 -79 -7 -22 -29 -58 -50 -79 -28 -28 -40 -52 -48 -92 -6 -29 -21 -109
-35 -177 -16 -82 -31 -130 -44 -145 -32 -35 -40 -57 -62 -177 -30 -159 -48
-220 -75 -249 -26 -28 -48 -98 -66 -205 -18 -111 -39 -188 -59 -210 -25 -29
-37 -72 -65 -241 -35 -209 -65 -304 -96 -304 -17 0 -38 63 -59 186 -26 150
-47 223 -65 230 -20 8 -50 95 -65 189 -13 88 -46 185 -61 185 -19 0 -48 85
-69 200 -24 135 -47 220 -60 220 -16 0 -48 106 -85 279 -46 221 -70 298 -96
312 -12 6 -32 35 -45 64 -38 88 -42 89 -307 93 -218 4 -229 3 -223 -15z"/>
<path d="M10540 2086 l0 -1206 293 0 c418 -1 1176 -18 1218 -29 21 -5 42 -5
49 -1 17 10 29 125 30 273 l0 127 -545 0 -545 0 2 313 3 312 478 3 477 2 0 76
c0 41 7 125 16 186 15 102 15 111 0 127 -15 14 -67 16 -496 19 l-480 3 2 292
3 292 536 3 536 2 7 48 c3 26 9 106 12 177 6 109 4 132 -8 143 -34 28 -174 34
-875 39 l-713 5 0 -1206z"/>
<path d="M13250 2070 l0 -1220 230 0 230 0 0 618 c1 597 9 901 28 951 8 22 9
22 25 7 9 -9 19 -32 22 -51 3 -19 8 -51 11 -71 4 -26 13 -40 38 -55 34 -20 35
-21 89 -139 20 -42 64 -110 101 -155 66 -80 83 -109 130 -217 16 -37 34 -62
49 -69 30 -14 63 -73 108 -193 26 -70 44 -101 86 -146 33 -36 55 -70 59 -91 9
-46 22 -69 39 -69 23 0 42 -27 49 -69 5 -30 15 -47 42 -68 61 -46 74 -62 81
-94 10 -50 46 -59 290 -70 119 -5 217 -8 219 -6 21 21 42 1171 36 1999 -3 372
-4 407 -20 414 -9 4 -104 9 -209 12 l-193 4 0 -643 c0 -731 -10 -939 -44 -939
-20 0 -53 42 -66 84 -7 22 -32 59 -56 83 -45 47 -84 138 -84 201 0 32 -1 33
-29 27 -36 -8 -62 22 -81 91 -10 35 -29 63 -72 107 -49 50 -61 69 -79 130 -26
86 -62 153 -88 162 -30 9 -51 39 -64 91 -9 35 -19 52 -37 61 -34 17 -50 41
-50 76 0 21 -9 37 -31 56 -72 60 -89 84 -109 151 -41 137 -120 215 -249 244
-49 11 -120 16 -235 16 l-166 0 0 -1220z"/>
<path d="M16170 3090 l0 -202 319 3 319 4 5 -75 c4 -41 9 -501 13 -1022 l7
-948 71 1 c39 0 145 6 236 12 l165 12 7 45 c10 55 15 903 9 1510 l-5 445 275
6 c283 6 355 16 394 55 20 21 20 21 -25 70 -40 44 -40 44 -40 127 0 53 -5 90
-13 101 -7 10 -38 25 -68 34 -47 14 -156 17 -861 20 l-808 3 0 -201z"/>
<path d="M19390 3277 c-40 -11 -46 -16 -55 -50 -6 -22 -20 -46 -32 -55 -31
-25 -44 -56 -75 -182 -15 -64 -37 -126 -48 -140 -31 -39 -40 -66 -66 -200 -31
-167 -42 -200 -69 -230 -31 -33 -43 -66 -66 -185 -26 -132 -37 -165 -65 -196
-18 -18 -33 -61 -55 -150 -32 -136 -47 -179 -60 -179 -12 0 -42 -105 -83 -292
-43 -194 -63 -258 -99 -311 -24 -35 -67 -187 -67 -237 l0 -23 180 6 c204 8
246 18 255 64 15 68 38 115 61 123 26 10 30 22 43 135 18 150 49 159 538 152
348 -4 382 -8 424 -53 16 -17 23 -42 30 -103 10 -104 13 -112 52 -136 24 -15
37 -36 53 -80 32 -92 42 -96 329 -102 226 -6 235 -5 235 13 0 36 -51 208 -70
239 -44 70 -53 95 -100 282 -46 181 -64 229 -132 356 -11 22 -24 69 -28 106
-7 69 -23 111 -41 111 -16 0 -39 66 -60 174 -22 117 -46 196 -60 196 -17 0
-47 81 -64 175 -22 123 -41 178 -73 212 -21 21 -35 57 -56 138 -31 118 -73
234 -129 358 l-36 77 -233 -1 c-143 0 -250 -5 -278 -12z m260 -655 c5 -20 13
-68 17 -106 5 -59 10 -73 38 -100 32 -32 47 -75 80 -229 9 -43 31 -106 49
-140 39 -73 53 -115 76 -220 l17 -79 -261 4 c-177 3 -271 9 -293 17 -31 12
-33 16 -33 64 0 106 83 408 126 459 22 27 36 80 74 271 10 54 26 110 36 125
l17 26 23 -27 c13 -15 28 -44 34 -65z"/>
<path d="M21670 2060 l0 -1233 183 5 c190 5 234 14 268 54 39 45 42 80 47 458
l4 368 182 -4 c101 -3 193 -10 208 -16 20 -8 36 -30 58 -78 18 -41 37 -68 49
-71 22 -6 41 -50 41 -97 0 -50 18 -101 54 -153 48 -69 80 -137 104 -219 28
-93 56 -132 117 -163 47 -25 59 -26 230 -29 203 -3 280 8 280 42 0 13 -16 29
-43 45 -48 29 -71 62 -72 104 0 38 -26 97 -42 97 -19 0 -43 44 -63 115 -22 76
-37 106 -73 141 -20 21 -35 53 -51 114 -30 113 -64 180 -104 205 -25 16 -33
28 -35 56 -4 47 19 74 121 146 97 68 179 143 208 190 38 61 49 130 56 333 6
211 -7 418 -32 475 -48 116 -275 265 -402 265 -36 0 -71 15 -88 37 -22 29
-114 35 -657 40 l-548 5 0 -1232z m946 831 c148 -31 214 -78 248 -178 21 -60
35 -79 69 -92 24 -9 27 -16 27 -58 -1 -90 -63 -204 -174 -322 -101 -105 -102
-105 -378 -109 l-238 -3 0 397 0 397 178 -6 c113 -4 210 -13 268 -26z"/>
<path d="M24502 2073 l3 -1218 236 -3 236 -2 7 287 c8 358 9 1985 0 2033 -19
110 -27 114 -282 118 l-202 3 2 -1218z"/>
<path d="M26973 3280 c-49 -6 -85 -18 -110 -34 -21 -14 -87 -41 -146 -60 -59
-19 -138 -51 -174 -71 -171 -94 -315 -245 -359 -377 -9 -27 -31 -69 -50 -94
-19 -24 -39 -65 -45 -92 -29 -130 -29 -895 1 -1027 6 -27 22 -61 35 -75 13
-14 41 -63 64 -110 77 -164 197 -277 374 -351 55 -23 111 -52 126 -64 14 -12
35 -27 46 -33 59 -30 467 -48 750 -33 235 13 271 20 328 64 24 18 71 43 104
56 111 42 275 190 290 262 3 18 23 44 53 69 54 45 82 102 104 207 18 83 30
115 56 151 30 41 44 235 36 532 -6 269 -13 321 -45 351 -11 11 -27 45 -36 77
-43 161 -45 165 -106 223 -43 42 -59 64 -59 83 0 38 -15 63 -44 70 -14 3 -54
28 -89 55 -85 66 -172 108 -270 132 -86 22 -133 42 -139 59 -2 6 -21 16 -43
21 -52 14 -559 20 -652 9z m467 -400 c138 -35 184 -62 290 -169 146 -147 168
-178 186 -257 20 -90 31 -559 16 -700 -12 -118 -25 -148 -80 -189 -41 -31 -62
-62 -62 -94 0 -32 -69 -99 -133 -131 -122 -59 -201 -74 -402 -73 -273 0 -348
26 -481 165 -34 35 -81 93 -103 128 -38 58 -53 98 -90 237 -6 23 -23 56 -38
73 -21 25 -28 49 -37 116 -13 109 4 241 34 264 22 17 43 70 60 156 21 109 39
151 76 179 19 14 34 35 34 46 0 50 66 125 164 183 153 92 369 117 566 66z"/>
<path d="M30762 3133 c25 -221 43 -305 77 -376 28 -59 38 -99 76 -337 18 -109
35 -170 46 -170 14 0 36 -91 54 -221 27 -205 44 -282 65 -311 25 -34 46 -115
60 -233 19 -162 42 -269 72 -338 16 -38 34 -94 40 -125 6 -31 16 -75 22 -97
l11 -40 275 0 274 0 18 90 c23 116 45 182 63 189 20 7 41 89 65 246 25 161 42
228 74 275 15 22 30 68 40 127 25 137 45 200 72 229 25 26 41 89 74 295 14 86
43 142 65 124 20 -17 41 -94 60 -220 18 -123 31 -167 56 -195 22 -25 49 -124
89 -330 34 -181 66 -295 81 -295 15 0 29 -46 55 -185 34 -183 42 -206 75 -237
17 -16 29 -37 29 -52 0 -17 9 -32 27 -43 24 -16 59 -18 294 -21 l267 -3 4 111
c3 102 5 113 26 130 32 26 48 79 76 250 24 140 33 172 73 245 9 16 29 108 46
205 33 200 47 244 75 236 16 -6 19 5 30 112 23 234 106 686 132 717 13 16 36
120 55 255 9 63 18 123 21 133 5 16 -10 17 -225 17 l-231 0 0 -97 c-1 -111
-12 -172 -34 -189 -25 -18 -44 -87 -66 -237 -32 -222 -40 -259 -66 -304 -30
-51 -54 -152 -95 -392 -35 -210 -58 -293 -90 -327 -16 -17 -24 -40 -27 -79 -2
-30 -8 -55 -13 -55 -5 0 -9 5 -9 11 0 24 -33 79 -51 84 -24 8 -44 74 -70 235
-26 161 -34 193 -63 227 -28 33 -49 101 -71 228 -20 122 -33 162 -55 183 -27
25 -37 57 -65 214 -26 141 -46 208 -63 208 -15 0 -32 49 -44 128 -16 113 -26
128 -95 142 -31 7 -107 13 -168 13 -100 2 -116 -1 -161 -23 -70 -36 -106 -111
-134 -280 -23 -141 -46 -230 -59 -230 -18 0 -48 -119 -86 -335 -26 -145 -55
-247 -80 -285 -31 -46 -42 -92 -65 -267 -23 -171 -41 -242 -71 -269 -21 -19
-21 -19 -45 9 -13 16 -24 36 -24 45 0 9 -5 59 -10 110 -7 76 -13 98 -33 122
-28 33 -49 116 -67 260 -16 138 -40 253 -56 270 -19 22 -47 149 -89 402 -42
256 -78 405 -104 431 -32 32 -124 47 -291 47 l-156 0 18 -157z"/>
<path d="M34880 2087 l0 -1204 643 -7 c554 -6 886 -16 937 -28 31 -7 40 43 40
225 l0 177 -580 0 -580 0 0 315 0 315 474 0 473 0 6 108 c6 115 25 182 52 182
19 0 38 45 30 70 -13 41 -50 44 -552 48 l-483 4 0 293 0 293 528 4 c464 3 532
6 565 21 50 22 67 64 67 164 0 130 -32 168 -166 200 -59 14 -169 17 -761 20
l-693 5 0 -1205z"/>
<path d="M37594 2239 c3 -580 9 -1128 13 -1218 l6 -163 361 6 c416 8 782 23
872 35 38 6 77 19 100 35 22 14 66 35 98 46 150 51 296 201 296 304 0 10 13
29 29 44 36 32 50 88 51 188 0 109 -15 171 -49 203 -19 18 -36 51 -50 96 -34
111 -51 130 -155 179 -51 24 -97 51 -104 59 -21 25 0 56 113 167 91 90 108
112 120 155 31 114 26 474 -10 591 -34 115 -103 178 -243 220 -52 16 -95 36
-110 51 -17 17 -44 28 -81 35 -31 5 -328 12 -660 15 l-604 5 7 -1053z m941
660 c221 -21 264 -55 285 -227 13 -98 -3 -242 -33 -302 -18 -37 -29 -47 -64
-56 -58 -17 -227 -32 -434 -39 l-177 -6 -6 58 c-3 32 -8 148 -11 258 -3 110
-8 231 -11 269 l-6 69 178 -7 c99 -4 224 -12 279 -17z m-44 -1028 c99 -6 148
-14 180 -28 118 -53 182 -211 159 -394 -17 -136 -60 -186 -168 -196 -72 -6
-110 -20 -117 -43 -9 -27 -58 -40 -154 -40 -99 0 -192 19 -230 47 -15 11 -34
43 -46 74 -17 47 -19 88 -23 322 l-4 267 134 0 c73 -1 194 -5 269 -9z"/>
</g>
</svg>
